<svg version="1.2" xmlns="http://www.w3.org/2000/svg" viewBox="0 0 778 755" width="778" height="755"><style>.a{fill:#b65f47;stroke:#000}.b{fill:#b55e46;stroke:#000}.c{fill:#504f4e;stroke:#000}.d{fill:#b55d44;stroke:#000}</style><path class="a" d="m652 170c-8.2-57.6-66.4-105.6-125-98 12.9 4.7 23.6 13.2 34.9 21.1 11.3 7.9 18.5 18.5 27.4 28.6 8.8 10.2 10.2 28.7 23.5 32.5 13.3 3.9 26.6 9.8 39.2 15.8z"/><path class="b" d="m536 180c4.8 1.2 11-4.8 16.7-5.3 5.7-0.5 12.8-3.2 19.3-3.7 6.5-0.5 15-1 22-1-7.5-20.1-19.6-38.2-35-54-10 2.8-19.4 7.3-29 11 2.4-9.2 9.9-15.8 14-24-51.6-37.5-128.6-41.6-180-1 16.7-1.3 41.1-5.2 59-4 17.9 1.2 36.4 6.2 50.9 14.1 14.5 7.8 26.7 15.7 36.8 28.2 10.1 12.5 21.4 24.9 25.3 39.7z"/><path class="c" d="m600 338c5.6-1.6 10.3-1.7 16-1 8.2-0.4 15.4 3.1 23 5-0.5 4.1-1.7 7.9-2 12-0.2 3.3-0.2 6.8 0 10 0.7 13.7 9.4 28 22 34-2.3-11.1-3.6-24.2 5-33 0.4 17.4 7.9 37.1 26 43q0-4.5 0-9c-0.4-4.1-0.4-9 0-13 0.6-12.5 1.7-30.5 10.3-39.8 8.5-9.2 18.7-15.1 20.7-28.2-11-1-22-9.2-25-20q17.5 0 35 0c-12.9-29.1-43.7-47.3-56.1-76.9-12.3-29.6-49.7-51.1-80.9-51.1-7 0-15.5 0.5-22 1-6.5 0.5-13.6 3.2-19.3 3.7-5.7 0.5-11.9 6.5-16.7 5.3 0.1 16.3-13.5 3.8-21.7-1.2-8.3-5-18.2-9.6-28.6-11.5-10.4-1.8-25.6-2.7-36.7-3.3-1.5 32.3 22.6 62.6 54 69-26.9 62.9 9.8 132.8 63 170 0.7-23.1 6-60.2 34-65zm-80-125c-0.2 4-7.4 1.4-11 1-17.8-0.4-33.1-12.9-38-30 19.3 0.9 41.6 9.5 49 29zm124 36c-21.2 9.2-46.3-3.3-49-27 19.6-0.4 46.1 3.2 49 27z"/><path class="c" d="m391 309c-1 5.9-2.3 11.7-4 17-5.9 23.3-19.7 44.2-39 60 3.6-18.3 8.7-36.2 10-55 0.2-3.3 0.8-7.4 1-10q0-10.5 0-21c-8.4 4-19.1 7.9-26.9 13.1-7.9 5.1-23.1 4.8-25.1 14.9-2 10.1-3.3 23.2-7.1 32.9-3.7 9.8-8.4 17.3-13.9 26.1-0.2 0.4 0 1 0 1 0 9.4 1.2 19.6 0 29-1.2 9.4 2.7 20.3 1 29 32.5 27.4 37 76 21 113 27.7 4.8 56.8 0.4 83-7-0.6-7.1-2-13.7-2-21-0.6-5.7-0.5-12.4 0-18 0.5-12 2.2-24.8 7-35 6.1 36.4 16.2 72.4 21 109 0.9 4 2.1 8.6 3 13 2 10 4.7 19.8 6 30 0.9 3.7 2.2 7.9 3 12 1.6 8.4 3.9 16.4 5 25 0.9 3.7 2.3 7.9 3 12 2.3 10 3.9 20.2 7 30q47 0 94 0c-0.5-12.2-6.7-22-13.3-31.8-6.5-9.7-18.9-10.5-26.7-17.2-3.6-3.1-2-11.2-2-16 0.4-16.6-0.6-36.7 0-53 0.6-16.3 2.6-33.7 4-49 1.4-15.3 2.4-31.6 8.7-44.3 6.3-12.7 15.2-19.6 22.1-31 6.8-11.3 15.7-20.4 20.3-32.6 4.6-12.2-13.4-17.9-20.9-27.4-7.5-9.4-18.2-17.3-25-28-6.7-10.6-15.5-20-20.3-32.6-4.8-12.6-11.8-25.1-13.6-39.4-1.7-14.4-5.8-34.3-1.2-49.6 4.6-15.4-7.6-20-18.1-30.1-9.7 6.2-17.3 13.7-26.3 21.8-8.9 8-15.4 15.1-25.4 22.4-10.1 7.4-7.4 26.6-9.3 37.8z"/><path class="d" d="m139 504q0 18.5 0 37c0 6.4 1 14.5-1 20-7.3 9.4-11.1 15.3-21.3 23.8-10.1 8.4-8 22.5-7.7 36.2 0.3 13.7-0.1 30.8 0 45 0.1 14.2-0.1 29.7 0 44q49.5 0 99 0c-3.1-22.1-19.1-44.5-43-46 7.1-12.8 3.3-39.6 20-43 16.7-3.4 32.9-7.8 47.3-15.7 14.5-7.9 23.6-15.8 35-28.1 11.3-12.2 17.2-23.9 23.4-39.5 6.1-15.7 4.9-38.7 0.3-54.7-4.6-16-11.1-28.7-19-43 5.2 0.5 9.3 4.1 14 6 0.3-8.6-2.9-20.4-1-29 1.9-8.6-4-22.3 1-29 0 0-0.2-0.6 0-1-7.6 8.9-16 19-26 26 3.3-13 9-25.4 10-39 1-12.6 2.9-25 2-38-1.5-0.4-2.4 1.4-4 1-15.7 4.9-32.9 9.7-47.3 17.7-14.4 8-26.8 13-38.9 25.1-12.2 12-26.3-0.8-37-12.6-10.8-11.7-15.5-29.7-19.8-44.2-26 27.1-26.2 74 8 95-11 1.7-23.1-4.6-32-12-0.9 13.2 10.1 23.1 15.8 33.3 5.6 10.1 27.6 9.6 27 21.5-0.6 11.9-4.8 29.9-4.8 43.2z"/><path class="c" d="m570.8 447.8c-5.5 7.2-8.4 14.8-14 21.9-5.7 7.2-9.3 14.2-15.9 21.2-6.5 7.1-6.6 14.4-14.1 21.8-7.6 7.5 0.9 13.9 8.1 19.4 7.2 5.4 13.7 10.4 19.4 17.6 5.7 7.3 0.6 20.3-1.5 29.1-2.1 8.8-6.7 15.5-15 21.9-8.4 6.5-10.7 14.1-6.8 24.3 4 10.2 5.6 15.6 9.7 26.3 4.1 10.7 12 11.6 20.2 4.6 8.2-6.9 15.7-6.5 22.9-13.2 7.1-6.6 14.6-9 19.4-17.5 4.9-8.5 6-18.8 8.8-28.2 2.9-9.3 4.9-18.8 7.7-28.3 2.8-9.6 5-20.7 6.3-30.7 1.4-10-4.2-20.2-9.2-27.8-5.1-7.6-9.7-13.9-14.9-21.1-5.2-7.2-9.6-15-15.1-21.9-5.6-6.8-8.5-15.7-15.8-20.2z"/><path class="b" d="m319 646c-1.7-3.6-6.7-11.2-4-15 3.5-4.9 14.1-6.4 18.8-11.3 4.6-4.8 11.6-8.2 16.4-13.4 4.9-5.3 9.8-10.5 13.8-16.3 0-2.7 3.3-4.2 3-7-4 0.1-8-0.1-12 0-15.4 1.1-38.7 1.8-53.8 0.8-15-1-18.3 15.6-30.5 23-12.1 7.3-20.3 16.7-33.7 21.2 4.6 13.9 12.9 22.2 19.2 35.8 6.4 13.6 14.6 18.8 20.9 34.1 6.3 15.3 25.9 12.8 42.9 12.1 17-0.7 37.7 0.5 55 0-3.5-23.9-23-46.4-49-45-2.1-6.4-4.9-12.6-7-19z"/></svg>