<svg version="1.2" xmlns="http://www.w3.org/2000/svg" viewBox="0 0 1600 519" width="1600" height="519"><style>.a{fill:#d4a017}.b{fill:#c4941a}.c{fill:#8b6914}.d{fill:#b8920f}.e{fill:#8b6914}.f{fill:#d4a017}</style><path class="a" d="m430.8 85.9c-6.2-43.7-50.4-80.1-94.8-74.3 9.8 3.6 17.9 10 26.5 16 8.5 6 14 14 20.7 21.7 6.7 7.7 7.8 21.7 17.9 24.6 10 3 20.1 7.4 29.7 12z"/><path class="b" d="m342.8 93.5c3.7 0.9 8.4-3.7 12.7-4 4.3-0.4 9.7-2.5 14.6-2.8 5-0.4 11.4-0.8 16.7-0.8-5.7-15.2-14.8-29-26.5-40.9-7.6 2.1-14.7 5.5-22 8.3 1.8-7 7.5-12 10.6-18.2-39.1-28.4-97.5-31.5-136.5-0.8 12.7-0.9 31.2-3.9 44.8-3 13.5 0.9 27.6 4.7 38.6 10.7 11 5.9 20.2 11.9 27.9 21.4 7.6 9.5 16.2 18.9 19.1 30.1z"/><path class="c" d="m391.4 213.3c4.2-1.2 7.8-1.3 12.1-0.8 6.2-0.3 11.7 2.4 17.4 3.8-0.3 3.1-1.3 6-1.5 9.1-0.1 2.5-0.1 5.2 0 7.6 0.5 10.4 7.1 21.2 16.7 25.8-1.8-8.5-2.7-18.4 3.8-25.1 0.3 13.2 6 28.2 19.7 32.6q0-3.4 0-6.8c-0.3-3.1-0.3-6.8 0-9.8 0.5-9.5 1.3-23.2 7.8-30.2 6.5-7 14.2-11.5 15.7-21.4-8.3-0.8-16.7-7-19-15.2q13.3 0 26.6 0c-9.8-22-33.2-35.8-42.6-58.3-9.3-22.4-37.6-38.7-61.3-38.7-5.3 0-11.7 0.4-16.7 0.8-4.9 0.3-10.3 2.4-14.6 2.8-4.3 0.3-9 4.9-12.7 4 0.1 12.3-10.2 2.9-16.4-0.9-6.3-3.8-13.8-7.3-21.7-8.7-7.9-1.4-19.4-2.1-27.8-2.6-1.2 24.5 17.1 47.5 40.9 52.4-20.4 47.7 7.4 100.6 47.8 128.9 0.5-17.6 4.5-45.7 25.8-49.3zm-60.7-94.8c-0.1 3-5.6 1.1-8.3 0.8-13.5-0.3-25.1-9.8-28.8-22.8 14.6 0.7 31.5 7.2 37.1 22zm94 27.3c-16.1 7-35.1-2.5-37.1-20.5 14.8-0.3 34.9 2.4 37.1 20.5z"/><path class="c" d="m232.9 191.3c-0.8 4.5-1.7 8.9-3 12.9-4.5 17.6-15 33.5-29.6 45.5 2.7-13.9 6.6-27.5 7.6-41.7 0.1-2.5 0.6-5.6 0.7-7.6q0-8 0-15.9c-6.3 3-14.4 5.9-20.4 9.9-5.9 3.9-17.5 3.6-19 11.3-1.5 7.6-2.5 17.6-5.4 24.9-2.8 7.5-6.3 13.1-10.5 19.8-0.2 0.3 0 0.8 0 0.8 0 7.1 0.9 14.8 0 22-0.9 7.1 2 15.4 0.8 22 24.6 20.7 28 57.6 15.9 85.6 21 3.7 43 0.3 62.9-5.3-0.5-5.4-1.5-10.4-1.5-15.9-0.5-4.3-0.4-9.4 0-13.7 0.4-9 1.7-18.8 5.3-26.5 4.6 27.6 12.3 54.9 15.9 82.7 0.7 3 1.6 6.5 2.3 9.8 1.5 7.6 3.6 15 4.5 22.8 0.7 2.8 1.7 5.9 2.3 9.1 1.2 6.3 3 12.4 3.8 18.9 0.7 2.8 1.7 6 2.3 9.1 1.7 7.6 2.9 15.3 5.3 22.8q35.6 0 71.3 0c-0.4-9.3-5.1-16.7-10.1-24.2-5-7.3-14.4-7.9-20.3-13-2.7-2.3-1.5-8.5-1.5-12.1 0.3-12.6-0.4-27.9 0-40.2 0.5-12.4 2-25.6 3-37.2 1.1-11.6 1.9-23.9 6.6-33.6 4.8-9.6 11.6-14.8 16.8-23.5 5.2-8.5 11.9-15.4 15.4-24.7 3.5-9.2-10.2-13.5-15.9-20.7-5.6-7.2-13.8-13.2-18.9-21.3-5.1-8-11.8-15.1-15.4-24.7-3.6-9.5-8.9-19-10.3-29.9-1.3-10.9-4.4-26-0.9-37.6 3.5-11.6-5.8-15.1-13.7-22.8-7.4 4.7-13.2 10.4-20 16.5-6.7 6.1-11.7 11.5-19.2 17-7.7 5.6-5.7 20.2-7.1 28.7z"/><path class="d" d="m41.8 339.1q0 14.1 0 28.1c0 4.8 0.8 11-0.7 15.1-5.5 7.2-8.4 11.6-16.2 18.1-7.6 6.4-6 17-5.8 27.4 0.2 10.4-0.1 23.4 0 34.1 0.1 10.8-0.1 22.6 0 33.4q37.5 0 75.1 0c-2.4-16.7-14.5-33.7-32.6-34.9 5.3-9.7 2.5-30 15.1-32.6 12.7-2.5 25-5.9 35.9-11.9 11-6 17.9-12 26.5-21.3 8.6-9.2 13.1-18.1 17.8-29.9 4.6-11.9 3.7-29.4 0.2-41.5-3.5-12.1-8.4-21.8-14.4-32.6 3.9 0.4 7 3.1 10.6 4.6 0.2-6.6-2.2-15.5-0.8-22 1.5-6.6-3-16.9 0.8-22 0 0-0.2-0.5 0-0.8-5.8 6.8-12.1 14.4-19.7 19.7 2.5-9.8 6.8-19.2 7.6-29.5 0.7-9.6 2.2-19 1.5-28.8-1.2-0.3-1.8 1-3.1 0.7-11.9 3.7-24.9 7.4-35.8 13.4-10.9 6.1-20.3 9.9-29.5 19.1-9.3 9.1-19.9-0.6-28.1-9.6-8.1-8.9-11.7-22.5-15-33.5-19.7 20.5-19.8 56.1 6.1 72-8.3 1.3-17.5-3.5-24.3-9.1-0.6 10 7.7 17.5 12 25.3 4.3 7.6 20.9 7.3 20.5 16.3-0.5 9-3.7 22.6-3.7 32.7z"/><path class="c" d="m369.2 296.5c-4.1 5.5-6.3 11.2-10.6 16.6-4.3 5.5-7 10.8-12 16.1-5 5.4-5 10.9-10.7 16.5-5.8 5.7 0.6 10.6 6.1 14.7 5.5 4.1 10.4 7.9 14.7 13.4 4.3 5.5 0.5 15.4-1.1 22-1.6 6.7-5.1 11.8-11.4 16.6-6.4 5-8.1 10.7-5.2 18.5 3.1 7.7 4.3 11.8 7.4 19.9 3.1 8.1 9.1 8.8 15.3 3.5 6.2-5.2 11.9-4.9 17.4-10 5.4-5 11-6.8 14.7-13.3 3.7-6.4 4.5-14.2 6.7-21.4 2.2-7 3.7-14.2 5.8-21.4 2.1-7.3 3.8-15.7 4.8-23.3 1-7.6-3.2-15.3-7-21.1-3.9-5.7-7.4-10.5-11.3-16-3.9-5.4-7.3-11.3-11.4-16.6-4.3-5.1-6.5-11.9-12-15.3z"/><path class="b" d="m178.3 446.8c-1.3-2.7-5.1-8.5-3-11.4 2.6-3.7 10.7-4.8 14.2-8.6 3.5-3.6 8.8-6.2 12.5-10.1 3.7-4 7.4-8 10.4-12.4 0-2 2.5-3.2 2.3-5.3-3 0.1-6.1-0.1-9.1 0-11.7 0.9-29.3 1.4-40.8 0.6-11.4-0.7-13.9 11.9-23.1 17.5-9.2 5.5-15.4 12.6-25.6 16 3.5 10.6 9.8 16.9 14.6 27.2 4.9 10.3 11.1 14.2 15.8 25.8 4.8 11.6 19.7 9.7 32.6 9.2 12.9-0.5 28.6 0.4 41.7 0-2.7-18.1-17.5-35.2-37.2-34.1-1.6-4.9-3.7-9.6-5.3-14.4z"/><path class="e" d="m622.3 194.6q0 19.6-16.5 31.3-16.4 11.7-41.1 11.8-24.6 0-39.2-5.1-14.4-5.2-14.4-13.2 0-8.6 8-10.1 0.5-18.2 0.4-43.1 0-25.1-0.6-39-7.5-3.4-7.5-9.6 0-6.2 5.8-10.4 6-4.4 14.6-6.8 17.1-4.7 30.2-4.8 13.1 0 23.3 3.6 10.4 3.5 16.2 9.3 11.3 11.2 11.4 24 0 15.6-14 27.5 10.2 5.6 16.8 14.9 6.6 9.3 6.6 19.7zm-76.8 18.9q6.9 1.2 19.5 1.2 12.7 0 22-5.3 9.3-5.5 9.2-15.9 0-7.6-7.6-12.9-7.5-5.3-16.4-7.1-9.7 2.6-16.2 2.6-6.4 0-11.5-0.3 0.4 31.7 1 37.7zm42.6-80.8q0-5.4-6.6-9.8-6.4-4.4-17.3-4.3-10.7 0-19.5 2.2l0.1 30q6.9-0.7 12.6-0.7 5.8 0 12.5 1.4 5.7-0.7 11.9-5.7 6.3-5.1 6.3-13.1zm153.2-37.5q7.5 0 11.7 6.2 4.4 6 4.4 15.3 0 9.1-5 51.2 0 9.8 2.1 26 2.2 16 5.7 18.4 3.3 2.2 4.7 2.7 1.5 0.6 2 0.9 0.9 0.9 0.9 3.7 0 6.9-4.7 12.2-4.7 5.3-12.3 5.3-7.5 0-12.4-6.4-5-6.5-6.8-16.5-16.9 23.1-39.7 23.2-12.2 0-21.8-6.2-9.7-6.3-15.4-16.5-11.5-20.7-11.5-46-0.1-29.9 15.9-51.6 16-21.7 41.5-21.8 14.9 0 28.4 8 2.7-8 12.3-8.1zm-11.8 74.4l-1-40.1q-13-11.1-27.9-11-12.6 0-22.2 14.4-9.4 14.2-9.4 34.4 0.1 20.2 6.3 33.7 6.4 13.3 17.5 13.3 11.3-0.1 22.7-15 11.7-15 14-29.7zm122.3-12.7l20.8 1.1 21.3-1.2q6.5 0 10.7 4.2 4.2 4.2 4.2 10.5 0.1 29.9-15.9 47.8-15.8 17.7-41.5 17.7-25.6 0.1-43.2-20.6-17.5-20.7-17.5-50.4-0.1-29.7 17.9-50.3 18-20.6 45.5-20.7 17.6 0 32 7.6 14.4 7.6 14.4 16.5 0.1 5.1-3.2 8.2-3.3 2.9-8.4 3-5.1 0-9.6-2.9-4.6-3.1-10.6-6.2-6-3.1-14.6-3.1-16.4 0.1-27.1 14.1-10.5 14.1-10.5 33.5 0.1 19.5 10.1 34.1 10.2 14.3 25.7 14.3 11.7 0 19.8-8.8 8.2-8.9 9.8-25-2-0.1-9.8-0.1l-20.2 0.9q-6.8 0.1-11-3.2-4.2-3.5-4.2-8.9 0-5.7 4.2-8.8 4.2-3.3 10.9-3.3zm162.3-5.4l-1.2-36.1q-0.1-19.8 13.6-19.9 13.8 0 13.9 19.9 0 11.3-1.2 35.1 5.4 1.1 8.5 4.5 3.3 3.5 3.3 8.2 0.1 4.8-3 8.2-3.1 3.5-8.8 4.2l1.4 40.5q0 19.6-13.8 19.7-13.7 0-13.7-19.7l1-41.3-25.3-0.5-24.6 0.6 1.4 41.3q0 19.7-13.8 19.7-13.9 0-13.9-19.6l1.2-40.4q-5.7-0.8-8.8-4.2-2.9-3.7-2.9-8.2 0-4.7 3.1-8.2 3.3-3.5 8.5-4.6l-1.1-34.9q-0.1-19.9 13.8-19.9 13.8 0 13.8 19.8 0.1 11.7-1.2 35.9l24.4 0.5q12.4-0.1 25.4-0.6z"/><path class="f" d="m1179.9 211.6q0 8.4-13.8 16.6-13.8 8.2-33.3 8.2-26.4 0.1-44-20.6-17.5-20.7-17.5-50.4-0.1-29.7 17.3-50.3 17.7-20.6 44.1-20.7 16.7 0 30 6.9 13.5 6.9 13.5 15.6 0 5.3-3.4 8.6-3.5 3.1-8.9 3.1-5.3 0-13.3-5.5-8.1-5.6-17.9-5.6-15.5 0.1-25.6 14.3-10 14-10 33.5 0.1 19.3 10.1 33.9 10.1 14.3 24.8 14.3 14.9 0 28-7.9 6-3.6 10.2-3.7 4.4 0 6.9 2.8 2.8 2.7 2.8 6.9zm103.6-60.7l-1.1-36q-0.1-19.9 13.6-19.9 13.8-0.1 13.9 19.8 0 11.3-1.2 35.1 5.4 1.1 8.5 4.6 3.3 3.4 3.3 8.2 0 4.7-3 8.2-3.1 3.4-8.8 4.2l1.4 40.4q0 19.7-13.8 19.7-13.7 0-13.7-19.7l1-41.3-25.3-0.5-24.6 0.6 1.4 41.3q0 19.7-13.8 19.7-13.9 0.1-13.9-19.6l1.2-40.4q-5.7-0.7-8.8-4.2-2.9-3.6-2.9-8.2 0-4.7 3.1-8.2 3.2-3.4 8.5-4.5l-1.1-35q-0.1-19.9 13.8-19.9 13.8 0 13.8 19.8 0.1 11.7-1.2 35.9l24.4 0.5q12.4 0 25.3-0.6zm155.3-57.1q7.4-0.1 11.6 6.1 4.4 6 4.4 15.3 0 9.1-5 51.2 0.1 9.8 2.1 26 2.2 16 5.7 18.4 3.3 2.2 4.7 2.7 1.5 0.6 2 0.9 0.9 0.9 0.9 3.7 0.1 6.9-4.7 12.2-4.7 5.3-12.3 5.3-7.5 0-12.4-6.4-5-6.5-6.8-16.5-16.9 23.1-39.7 23.2-12.2 0-21.8-6.1-9.7-6.4-15.4-16.6-11.5-20.7-11.5-46-0.1-29.9 15.9-51.6 16-21.7 41.5-21.8 14.9 0 28.4 8 2.7-8 12.4-8zm-11.9 74.3l-1-40.1q-13-11.1-27.9-11-12.6 0-22.2 14.4-9.4 14.2-9.4 34.4 0.1 20.3 6.3 33.7 6.4 13.3 17.5 13.3 11.3-0.1 22.7-15 11.7-15 14-29.7zm111.7 42.5l24.9-1.1q7 0 11 3.2 4.2 3.1 4.2 8.8 0 5.6-4.2 9.1-4 3.3-10.9 3.3l-25-1.1-27.4 1.2q-6.8 0-11.3-4.3-4.4-4.4-4.4-11.7l0.9-54.3-1.5-49.3q-0.1-19.8 13.8-19.9 13.8 0 13.9 19.8l-1.4 49.4q0 9.3 1.4 46.6 9.4 0.3 16 0.3z"/><path class="e" d="m849.9 351.6c-4.3 2.4-9.4 3.6-14.2 3.6-11.3 0-19.5-7.3-19.5-18.9 0-4.2 1-7.7 2.8-10.6zm54.4-85h-126v20.4h82v48.8c0 2.7-0.8 5.3-1.9 7.6l-30.2-24.9c1.8-0.6 4-0.9 6.4-0.9 3.8 0 8.7 0.5 12.5 1.8v-22.2c-4-0.9-10-1.5-14.7-1.5-26.2 0-42.3 17.7-42.3 39.9 0 23.3 19.9 39.7 41.9 39.7 11.7 0 21.2-4 28.3-10.6v24.1h25.8v-101.8h18.2zm-10.9 20.4h18.2v101.8h25.7v-101.8h18.2v-20.4h-62.1zm134.6 39.7c0 19.3-12.6 28.2-29.2 28.2-9.4 0-16.7-3.8-16.7-11.8 0-7.5 6.5-12.4 17.3-12.4h8.7v-21.5h-7.3c-10.5 0-16.2-3.3-16.2-11.1 0-4.7 2.2-8.2 5.7-11.1h37.7zm43.7-60.1h-127.1v20.4h19.6c-3.4 3.6-5.4 8.2-5.4 13.5 0 12.2 9.6 19.1 26 19.5-17.5 1.2-28.6 11.1-28.6 25.6 0 19.7 18 30.6 39.7 30.6 11.8 0 25.5-3.8 32.1-12.9v25.5h25.5v-101.8h18.2z"/><path class="f" d="m1191.9 266.6h-131.1v20.3h87.4v43c0 7.1-8.4 21.7-26 21.7-10.4 0-17-4.4-17-12.6 0-11.6 11.3-15.6 30.1-15.6v-21h-65.4v21h20.4c-5.5 3.4-9.7 9.3-9.7 19.3 0 15.6 12.6 29.5 34.6 29.5 17.5 0 27.9-7 33-14.1v30.6h25.5v-101.8h18.2zm-10.9 20.4h18.2v101.8h25.7v-101.8h18.2v-20.4h-62.1zm200.6-20.3h-149.5v20.3h105.3v13.3c-1.5-0.1-3.1-0.3-4.6-0.3-13.6 0-24.4 5.1-28 17.6-2-8.5-10.8-16.2-26.2-16.2-22.2 0-34.8 15.5-34.8 39 0 29.1 19.7 48.3 51 48.3 3.4 0 7.1-0.2 10.7-0.8v-20.9c-2.7 0.4-5.3 0.5-7.8 0.5-19.9 0-28.4-10-28.4-26.7 0-13.1 4.9-18.1 12-18.1 6.7 0 10.6 4.2 10.6 15.5v12.2h26v-11.8c0-12.8 4.7-18.4 16.4-18.4 1.1 0 2 0 3.1 0.2v68.4h26v-101.8h18.2z"/></svg>